<svg width="24" height="24" viewBox="0 0 24 24" fill="none" xmlns="http://www.w3.org/2000/svg">
<g clip-path="url(#clip0_12203_31865)">
<path d="M18.0309 16.6171L22.3139 20.8991L20.8989 22.3141L16.6169 18.0311C15.0236 19.3083 13.0419 20.003 10.9999 20.0001C6.03188 20.0001 1.99988 15.9681 1.99988 11.0001C1.99988 6.03206 6.03188 2.00006 10.9999 2.00006C15.9679 2.00006 19.9999 6.03206 19.9999 11.0001C20.0028 13.0421 19.3081 15.0238 18.0309 16.6171ZM16.0249 15.8751C17.294 14.5699 18.0027 12.8205 17.9999 11.0001C17.9999 7.13206 14.8669 4.00006 10.9999 4.00006C7.13188 4.00006 3.99988 7.13206 3.99988 11.0001C3.99988 14.8671 7.13188 18.0001 10.9999 18.0001C12.8203 18.0029 14.5698 17.2942 15.8749 16.0251L16.0249 15.8751Z" fill="#17171A"/>
</g>
<defs>
<clipPath id="clip0_12203_31865">
<rect width="24" height="24" fill="white"/>
</clipPath>
</defs>
</svg>
